HIERARCHY
ROOT SpineBase
{
  OFFSET 0.000000 0.000000 0.000000
  CHANNELS 6 Xposition Yposition Zposition Zrotation Xrotation Yrotation
  JOINT SpineMid
  {
    OFFSET 0.000000 37.983188 0.000000
    CHANNELS 3 Zrotation Xrotation Yrotation
    JOINT SpineShoulder
    {
      OFFSET 0.014973 27.877190 -0.872152
      CHANNELS 3 Zrotation Xrotation Yrotation
      JOINT Neck
      {
        OFFSET 0.009881 9.135800 -0.653539
        CHANNELS 3 Zrotation Xrotation Yrotation
        JOINT Head
        {
          OFFSET -8.323576 9.740896 4.309351
          CHANNELS 3 Zrotation Xrotation Yrotation
          End Site
          {
            OFFSET 0 0 0
          }
        }
      }
      JOINT ShoulderLeft
      {
        OFFSET -7.086638 -8.019575 -3.385315
        CHANNELS 3 Zrotation Xrotation Yrotation
        JOINT ElbowLeft
        {
          OFFSET -11.222568 -16.133752 3.597045
          CHANNELS 3 Zrotation Xrotation Yrotation
          JOINT WristLeft
          {
            OFFSET 18.551551 -9.343914 -7.770112
            CHANNELS 3 Zrotation Xrotation Yrotation
            JOINT HandLeft
            {
              OFFSET 5.909532 -5.628058 -4.210895
              CHANNELS 3 Zrotation Xrotation Yrotation
              JOINT HandTipLeft
              {
                OFFSET 5.551104 -3.993065 1.246495
                CHANNELS 3 Zrotation Xrotation Yrotation
                End Site
                {
                  OFFSET 0 0 0
                }
              }
              JOINT ThumbLeft
              {
                OFFSET 5.917561 2.497443 -0.183547
                CHANNELS 3 Zrotation Xrotation Yrotation
                End Site
                {
                  OFFSET 0 0 0
                }
              }
            }
          }
        }
      }
      JOINT ShoulderRight
      {
        OFFSET 5.737190 -4.596837 -13.324784
        CHANNELS 3 Zrotation Xrotation Yrotation
        JOINT ElbowRight
        {
          OFFSET 0.984095 -23.196092 -7.117417
          CHANNELS 3 Zrotation Xrotation Yrotation
          JOINT WristRight
          {
            OFFSET -22.458776 -1.104821 15.293025
            CHANNELS 3 Zrotation Xrotation Yrotation
            JOINT HandRight
            {
              OFFSET 0.205922 2.200869 0.599979
              CHANNELS 3 Zrotation Xrotation Yrotation
              JOINT HandTipRight
              {
                OFFSET -3.354765 2.318544 0.888996
                CHANNELS 3 Zrotation Xrotation Yrotation
                End Site
                {
                  OFFSET 0 0 0
                }
              }
              JOINT ThumbRight
              {
                OFFSET 1.038128 4.434746 -0.903748
                CHANNELS 3 Zrotation Xrotation Yrotation
                End Site
                {
                  OFFSET 0 0 0
                }
              }
            }
          }
        }
      }
    }
  }
  JOINT HipLeft
  {
    OFFSET -5.081916 -1.137836 0.033851
    CHANNELS 3 Zrotation Xrotation Yrotation
    JOINT KneeLeft
    {
      OFFSET 3.506356 -35.344974 -10.861742
      CHANNELS 3 Zrotation Xrotation Yrotation
      JOINT AnkleLeft
      {
        OFFSET 4.731407 -30.020745 24.834860
        CHANNELS 3 Zrotation Xrotation Yrotation
        JOINT FootLeft
        {
          OFFSET -5.436602 -2.885592 -10.645851
          CHANNELS 3 Zrotation Xrotation Yrotation
          End Site
          {
            OFFSET 0 0 0
          }
        }
      }
    }
  }
  JOINT HipRight
  {
    OFFSET 5.731803 2.839147 -8.340689
    CHANNELS 3 Zrotation Xrotation Yrotation
    JOINT KneeRight
    {
      OFFSET 2.131157 -35.679624 -0.567256
      CHANNELS 3 Zrotation Xrotation Yrotation
      JOINT AnkleRight
      {
        OFFSET 5.247343 -35.699669 7.614378
        CHANNELS 3 Zrotation Xrotation Yrotation
        JOINT FootRight
        {
          OFFSET -2.349339 -6.375832 -3.300993
          CHANNELS 3 Zrotation Xrotation Yrotation
          End Site
          {
            OFFSET 0 0 0
          }
        }
      }
    }
  }
}
MOTION
Frames: 16
Frame Time: 0.033333
-23.991010 75.673760 315.136113 -0.000000 0.000000 37.755510 0.000000 -0.000000 -37.755510 -0.000000 0.000000 0.000000 -0.000000 0.000000 0.000000 0.000000 0.000000 0.000000 -0.000000 0.000000 0.000000 -0.000000 0.000000 0.000000 -0.000000 0.000000 0.000000 -0.000000 0.000000 0.000000 0.000000 0.000000 0.000000 0.000000 0.000000 0.000000 -0.000000 0.000000 0.000000 -0.000000 0.000000 0.000000 -0.000000 0.000000 0.000000 -0.000000 0.000000 0.000000 0.000000 0.000000 0.000000 0.000000 0.000000 0.000000 0.000000 -0.000000 -37.755510 -0.000000 0.000000 0.000000 -0.000000 0.000000 0.000000 0.000000 0.000000 0.000000 0.000000 -0.000000 -37.755510 -0.000000 0.000000 0.000000 -0.000000 0.000000 0.000000 0.000000 0.000000 0.000000
-23.864744 76.022078 315.097314 0.162525 0.072054 37.987042 -0.172442 0.043243 -37.987079 -0.000000 0.000000 0.000000 -0.000000 0.000000 0.000000 0.000000 0.000000 0.000000 2.050194 -0.835489 1.064757 -3.390576 0.285580 -1.118805 3.465639 6.224857 4.040587 -3.100019 -3.865183 -2.306189 0.000000 0.000000 0.000000 0.000000 0.000000 0.000000 -0.000000 0.000000 0.000000 -0.000000 0.000000 0.000000 -2.436496 -0.285309 0.684035 1.903312 1.801229 1.757574 0.000000 0.000000 0.000000 0.000000 0.000000 0.000000 -0.172442 0.043243 -37.987079 -0.000000 0.000000 0.000000 -0.000000 0.000000 0.000000 0.000000 0.000000 0.000000 -0.172442 0.043243 -37.987079 -0.000000 0.000000 0.000000 -0.000000 0.000000 0.000000 0.000000 0.000000 0.000000
-23.771617 76.286990 315.067519 0.287044 0.127027 38.073169 -0.304301 0.077013 -38.073282 -0.000000 0.000000 0.000000 -0.000000 0.000000 0.000000 0.000000 0.000000 0.000000 3.681117 -1.468920 1.927426 -6.201889 0.518859 -1.967634 6.219241 11.792450 7.393378 -6.086453 -7.111227 -4.760850 0.000000 0.000000 0.000000 0.000000 0.000000 0.000000 -0.000000 0.000000 0.000000 -0.000000 0.000000 0.000000 -4.437532 -0.535401 1.236715 3.530692 3.150845 3.036941 0.000000 0.000000 0.000000 0.000000 0.000000 0.000000 -0.304301 0.077013 -38.073282 -0.000000 0.000000 0.000000 -0.000000 0.000000 0.000000 0.000000 0.000000 0.000000 -0.304301 0.077013 -38.073282 -0.000000 0.000000 0.000000 -0.000000 0.000000 0.000000 0.000000 0.000000 0.000000
-23.711629 76.468495 315.046727 0.372393 0.164401 38.014081 -0.394640 0.099817 -38.014272 -0.000000 0.000000 0.000000 -0.000000 0.000000 0.000000 0.000000 0.000000 0.000000 4.969467 -1.949946 2.618432 -8.511986 0.701745 -2.610872 8.376170 16.551714 10.111380 -8.855210 -9.660404 -7.116846 0.000000 0.000000 0.000000 0.000000 0.000000 0.000000 -0.000000 0.000000 0.000000 -0.000000 0.000000 0.000000 -6.021454 -0.740032 1.667949 4.899658 4.104030 3.882667 0.000000 0.000000 0.000000 0.000000 0.000000 0.000000 -1.433834 0.133254 -37.814625 0.841481 0.610716 -0.202018 -0.000000 0.000000 0.000000 0.000000 0.000000 0.000000 -0.394640 0.099817 -38.014272 -0.000000 0.000000 0.000000 -0.000000 0.000000 0.000000 0.000000 0.000000 0.000000
-23.684781 76.566594 315.034938 0.417767 0.183820 37.808624 -0.442748 0.110875 -37.808866 -0.000000 0.000000 0.000000 -0.000000 0.000000 0.000000 0.000000 0.000000 0.000000 5.972125 -2.312814 3.162093 -10.377872 0.839334 -3.094288 10.047637 20.460301 12.258801 -11.333553 -11.538959 -9.215051 0.000000 0.000000 0.000000 0.000000 0.000000 0.000000 -0.000000 0.000000 0.000000 -0.000000 0.000000 0.000000 -7.208902 -0.892725 1.987414 6.026989 4.703408 4.329637 0.000000 0.000000 0.000000 0.000000 0.000000 0.000000 -1.707152 0.090735 -37.581237 0.989790 0.787081 -0.232203 -0.000000 0.000000 0.000000 0.000000 0.000000 0.000000 -0.442748 0.110875 -37.808866 -0.000000 0.000000 0.000000 -0.000000 0.000000 0.000000 0.000000 0.000000 0.000000
-23.691072 76.581287 315.032153 0.422738 0.185097 37.454396 -0.448148 0.110145 -37.454648 -0.000000 0.000000 0.000000 -0.000000 0.000000 0.000000 0.000000 0.000000 0.000000 6.730899 -2.581198 3.577219 -11.841043 0.937382 -3.450257 11.326610 23.540469 13.896770 -13.484230 -12.820875 -10.966012 0.000000 0.000000 0.000000 0.000000 0.000000 0.000000 -0.000000 0.000000 0.000000 0.098966 0.112627 -0.949243 -8.100263 -1.235318 3.127678 6.928671 4.978228 4.401723 0.000000 0.000000 0.000000 0.000000 0.000000 0.000000 -1.876200 0.001708 -37.219003 1.071700 0.950080 -0.243137 -0.000000 0.000000 0.000000 0.000000 0.000000 0.000000 -0.448148 0.110145 -37.454648 -0.000000 0.000000 0.000000 -0.000000 0.000000 0.000000 0.000000 0.000000 0.000000
-23.731878 76.517402 315.039918 0.377109 0.165984 37.042412 -0.400994 0.094687 -37.042626 -0.000000 0.000000 0.000000 -0.000000 0.000000 0.000000 0.000000 0.000000 0.000000 7.520934 -2.856590 4.014083 -13.421442 1.032580 -3.812620 12.760639 26.914522 15.579866 -16.278381 -13.713816 -12.764833 0.000000 0.000000 0.000000 0.000000 0.000000 0.000000 0.519594 -0.634168 -0.183738 -0.430442 0.750566 -0.973556 -8.519607 -0.921701 3.437798 8.936407 3.084090 1.492937 0.000000 0.000000 0.000000 0.000000 0.000000 0.000000 -2.068958 -0.190003 -36.808778 1.165073 1.227174 -0.247714 -0.000000 0.000000 0.000000 0.000000 0.000000 0.000000 -0.400994 0.094687 -37.042626 -0.000000 0.000000 0.000000 -0.000000 0.000000 0.000000 0.000000 0.000000 0.000000
-23.780614 76.436136 315.126860 0.303536 0.062021 36.059029 -0.281889 0.128528 -36.058877 -0.000000 0.000000 0.000000 -0.000000 0.000000 0.000000 0.000000 0.000000 0.000000 7.983743 -3.018183 4.273926 -14.389076 1.082356 -4.022536 13.500798 29.100576 16.795370 -17.954816 -14.481103 -14.366663 0.000000 0.000000 0.000000 0.000000 0.000000 0.000000 0.580171 -0.686328 -0.203993 -0.465239 0.831167 -1.190361 -9.081459 -0.464750 3.793913 4.696909 2.216889 2.931684 0.000000 0.000000 0.000000 0.000000 0.000000 0.000000 -1.987477 -0.530132 -35.911938 1.358673 2.611144 0.291688 -0.368685 -1.075539 -0.474527 0.000000 0.000000 0.000000 -0.281889 0.128528 -36.058877 -0.000000 0.000000 0.000000 -0.000000 0.000000 0.000000 0.000000 0.000000 0.000000
-23.904519 76.155526 314.980205 0.147098 0.178104 35.653505 -0.223339 -0.058978 -35.653848 -0.000000 0.000000 0.000000 -0.000000 0.000000 0.000000 0.000000 0.000000 0.000000 7.996567 -3.247996 4.459190 -14.489697 1.311237 -4.148966 13.835656 29.966528 17.173475 -19.025843 -14.985858 -15.566099 0.000000 0.000000 0.000000 0.000000 0.000000 0.000000 0.725864 -0.731205 -0.249536 -0.566254 0.921625 -1.490469 -7.867200 -3.372796 3.912113 4.381091 5.013289 2.473625 0.000000 0.000000 0.000000 0.000000 0.000000 0.000000 -1.654256 -0.370254 -35.464771 0.985009 1.083630 -0.203753 -0.000000 0.000000 0.000000 0.000000 0.000000 0.000000 -0.223339 -0.058978 -35.653848 -0.000000 0.000000 0.000000 -0.000000 0.000000 0.000000 0.000000 0.000000 0.000000
-24.080284 75.778649 314.877686 -0.028117 0.182892 34.530178 -0.080507 -0.166609 -34.530250 -0.000000 0.000000 0.000000 0.108059 -0.600227 -0.560980 0.000000 0.000000 0.000000 7.498354 -3.093819 4.193618 -13.582132 1.227215 -3.943595 13.073274 28.121787 16.297043 -18.010269 -14.225335 -14.623928 0.000000 0.000000 0.000000 0.000000 0.000000 0.000000 0.990142 -0.752881 -0.329798 -0.779510 0.996147 -1.850658 -7.399795 -4.411860 4.270672 9.994174 6.153770 0.059569 0.000000 0.000000 0.000000 0.000000 0.000000 0.000000 -1.692333 -0.369613 -34.271282 1.953990 -0.349200 0.103856 -0.733629 1.425718 -0.377331 0.000000 0.000000 0.000000 -0.080507 -0.166609 -34.530250 -0.000000 0.000000 0.000000 -0.000000 0.000000 0.000000 0.000000 0.000000 0.000000
-24.224543 75.473247 315.003783 -0.148130 -0.018640 33.229246 0.134123 -0.065582 -33.229194 -0.000000 0.000000 0.000000 -0.048072 -0.746460 -0.618903 0.000000 0.000000 0.000000 7.336662 -2.895898 3.992458 -13.436393 0.979358 -3.805482 13.019558 27.622314 15.976731 -17.656990 -13.272255 -13.231337 0.000000 0.000000 0.000000 0.000000 0.000000 0.000000 1.235767 -0.768081 -0.404141 -0.930198 1.091294 -2.200125 -7.725784 -3.327999 4.686089 12.726473 6.790752 1.691750 0.000000 0.000000 0.000000 0.000000 0.000000 0.000000 1.205073 0.836814 -33.226644 -0.413969 -3.749072 -0.397599 -0.004291 2.407473 0.382678 0.000000 0.000000 0.000000 0.615422 0.585292 -33.183839 -0.046586 -0.808151 -0.047866 -0.000000 0.000000 0.000000 0.000000 0.000000 0.000000
-24.309143 75.282249 315.233267 -0.175607 -0.263734 32.428693 0.289651 0.128437 -32.429422 -0.000000 0.000000 0.000000 -0.040724 -0.664845 -0.551915 0.000000 0.000000 0.000000 7.350712 -2.494051 3.681887 -13.477241 0.518663 -3.596421 12.895164 26.276072 15.085438 -17.140830 -11.513349 -10.983026 0.000000 0.000000 0.000000 0.000000 0.000000 0.000000 1.548611 -0.797745 -0.499040 -1.182931 1.177602 -2.561880 -8.021069 -2.619198 5.157065 8.236393 7.197212 5.619485 0.000000 0.000000 0.000000 0.000000 0.000000 0.000000 0.289651 0.128437 -32.429422 -0.000000 0.000000 0.000000 -0.996788 1.749095 0.370213 0.000000 0.000000 0.000000 0.615590 1.585700 -32.342328 1.343209 -1.579485 0.089372 -0.634795 -0.765625 0.089938 0.000000 0.000000 0.000000
-24.362552 75.150060 315.721717 -0.049121 -0.655030 32.001910 0.388800 0.529449 -32.003987 -0.000000 0.000000 0.000000 -0.000000 0.000000 0.000000 0.000000 0.000000 0.000000 7.698882 -1.785429 3.219958 -13.863874 -0.259518 -3.298170 12.887697 24.392727 13.662691 -16.684921 -9.385642 -8.249889 0.000000 0.000000 0.000000 0.000000 0.000000 0.000000 2.290914 -0.663611 -0.718574 -1.939619 1.048197 -2.948240 -7.872763 -3.049349 5.751597 5.185244 8.490645 8.518135 0.000000 0.000000 0.000000 0.000000 0.000000 0.000000 -2.070822 -2.182751 -32.199678 1.349166 6.891615 1.209733 -1.340468 -2.039565 -1.315245 0.000000 0.000000 0.000000 0.361754 3.184365 -31.846659 2.964759 -2.660321 0.203618 -1.320448 -0.748334 0.058353 0.000000 0.000000 0.000000
-24.413221 75.112936 316.635065 0.104519 -1.474690 32.117335 0.244012 0.444118 -32.114150 0.174969 -0.013934 0.014621 -0.249731 0.982811 -0.016796 0.000000 0.000000 0.000000 8.008167 0.035919 2.534002 -17.223078 -3.138619 -5.509862 13.709670 25.785719 15.623120 -15.520443 -7.865758 -6.522392 0.000000 0.000000 0.000000 0.000000 0.000000 0.000000 2.949194 0.488340 -1.060703 -2.917060 0.833072 -3.269238 -3.867785 -2.490971 5.380209 -3.511495 7.643076 11.423067 0.000000 0.000000 0.000000 0.000000 0.000000 0.000000 -6.816523 -5.230416 -32.447097 4.906953 18.505902 2.524730 -1.695082 -10.091757 -3.946109 0.000000 0.000000 0.000000 0.493099 5.686170 -31.856223 4.722288 -4.417277 0.336262 -1.786817 -0.422420 -0.117154 0.000000 0.000000 0.000000
-24.550200 75.090160 317.912686 0.653309 -2.255924 31.970054 0.275833 0.513394 -31.940857 0.148736 -0.015539 0.034219 0.270579 2.495761 0.147239 0.000000 0.000000 0.000000 8.351971 1.854861 1.684695 -17.448364 -3.914519 -4.484756 13.901455 21.383200 11.637320 -14.901429 -4.686304 -1.963812 0.000000 0.000000 0.000000 0.000000 0.000000 0.000000 4.048539 1.853283 -1.659621 -4.551540 0.119266 -3.712749 5.601734 -3.941079 4.255213 -10.469918 10.798395 14.312027 0.000000 0.000000 0.000000 0.000000 0.000000 0.000000 -13.455480 -8.975315 -32.663134 9.550428 31.992786 2.667780 -1.380905 -20.848158 -5.722107 0.000000 0.000000 0.000000 0.970965 8.941930 -31.600537 6.044095 -7.250949 0.475788 -2.020989 0.414314 -0.406377 0.000000 0.000000 0.000000
-24.850935 74.872459 319.457088 1.145233 -3.189014 31.600022 0.114518 0.410859 -31.535784 0.227810 0.045289 0.052944 0.444280 4.516955 0.593446 0.000000 0.000000 0.000000 8.872642 4.088619 0.691365 -15.080404 -2.701375 -0.772296 12.124585 10.573063 2.224444 -15.258904 0.363175 5.162560 0.000000 0.000000 0.000000 0.000000 0.000000 0.000000 5.279919 2.960085 -2.373885 -6.565444 -0.203557 -4.387488 18.325192 -6.399676 3.276408 -19.557797 15.008277 17.553154 0.000000 0.000000 0.000000 0.000000 0.000000 0.000000 -21.000302 -13.102751 -33.011496 16.986522 45.916076 0.840064 -1.028706 -34.128590 -6.999036 0.000000 0.000000 0.000000 2.241698 12.590314 -31.225110 6.674345 -10.918983 0.571726 0.320840 -3.821560 0.208526 0.000000 0.000000 0.000000
